<svg id="Layer_1" data-name="Layer 1" xmlns="http://www.w3.org/2000/svg" viewBox="0 0 136.38 277.59"><defs><style>.cls-1{fill:#555;}.cls-2{fill:none;stroke:#555;stroke-linejoin:round;stroke-width:3px;}</style></defs><title>Logo</title><rect class="cls-1" y="112.71" width="15" height="104"/><path class="cls-1" d="M271.24,395.38v-15A60.41,60.41,0,0,0,331.59,320h15A75.43,75.43,0,0,1,271.24,395.38Z" transform="translate(-210.63 -117.79)"/><rect class="cls-1" x="268.72" y="245" width="141" height="15" transform="translate(-125.27 472.91) rotate(-89.77)"/><path class="cls-1" d="M251,180.5H236a63.23,63.23,0,0,1,17.77-44.27A59.76,59.76,0,0,1,297,117.79h0v15a44.89,44.89,0,0,0-32.44,13.88A48.31,48.31,0,0,0,251,180.5Z" transform="translate(-210.63 -117.79)"/><path class="cls-1" d="M243.5,290a7.5,7.5,0,0,1-7.5-7.5v-103a7.5,7.5,0,0,1,15,0v103A7.5,7.5,0,0,1,243.5,290Z" transform="translate(-210.63 -117.79)"/><circle class="cls-2" cx="32.87" cy="206.71" r="9"/></svg>